<?xml version="1.0" encoding="UTF-8"?>
<svg width="1024px" height="1024px" viewBox="0 0 1024 1024" version="1.1" xmlns="http://www.w3.org/2000/svg" xmlns:xlink="http://www.w3.org/1999/xlink">
    <!-- Generator: Sketch 40.3 (33839) - http://www.bohemiancoding.com/sketch -->
    <title>Group 2</title>
    <desc>Created with Sketch.</desc>
    <defs></defs>
    <g id="Page-1" stroke="none" stroke-width="1" fill="none" fill-rule="evenodd">
        <g id="Group-2">
            <g id="finn" transform="translate(131.011765, 0.000000)">
                <path d="M546.749741,259.677365 C564.794729,260.701365 574.201976,268.735247 576.3072,286.293835 C576.840282,290.709082 584.738635,296.086588 590.250165,297.783718 C670.037835,322.377788 721.576659,374.839718 745.682824,454.393976 C749.126776,465.757365 749.673412,477.965553 752.542118,489.544282 C754.874729,499.004235 760.416376,507.908518 761.429835,517.391059 C763.262494,534.5024 764.491294,552.125741 761.956894,568.9344 C761.371106,572.793976 744.615153,575.957835 735.156706,576.4096 C704.724329,577.877835 704.694212,577.328188 701.715576,556.291012 C694.710212,552.342588 684.012424,549.157647 683.916047,545.667012 C683.715765,538.496 687.189835,527.421741 692.642635,524.524424 C726.1184,506.738447 713.592471,480.484894 705.427576,456.603106 C684.4416,395.184188 642.023906,355.100612 577.627859,334.72 C570.944753,356.166776 587.242918,390.8864 545.233318,390.109365 L545.233318,550.556612 C545.233318,572.039529 545.239341,593.529976 545.233318,615.020424 C545.218259,649.518682 544.254494,650.800188 510.858541,659.468047 C510.510682,664.431435 509.807435,669.876706 509.7984,675.328 C509.724612,752.429176 509.539388,829.530353 510.125176,906.631529 C510.177882,913.231812 516.854965,919.573082 518.008471,926.447435 C519.335153,934.291576 519.225224,942.929318 517.312753,950.610824 C515.541835,957.736659 510.567906,964.064376 507.346824,970.093929 C511.850918,973.443012 512.748424,974.628141 513.838682,974.841976 C535.461647,979.190965 544.825224,987.863341 542.433882,1002.58485 C539.432659,1021.04546 526.290824,1023.84489 510.102588,1023.78616 C457.321412,1023.59341 454.278024,1027.11115 455.892329,970.122541 C456.077553,963.684894 449.721224,957.313506 448.224376,950.514447 C446.585976,943.076894 444.394918,929.713694 447.097976,928.387012 C460.795482,921.645176 456.077553,910.363106 456.112188,900.793224 C456.423906,820.574871 456.291388,740.355012 456.291388,658.587106 L311.171012,658.587106 C310.785506,665.136188 310.110871,671.254588 310.103341,677.374494 C310.014494,753.207718 309.7856,829.051482 310.386447,904.8832 C310.442165,912.239435 316.471718,919.3728 318.388706,926.9504 C320.015059,933.388047 322.674447,944.137035 319.771106,946.388329 C303.144659,959.271153 310.823153,976.442729 310.622871,991.480471 C310.291576,1016.11068 304.859859,1023.28169 280.441976,1023.57082 C270.965459,1023.68226 261.4784,1023.41572 252.003388,1023.62353 C236.947576,1023.96386 225.823624,1019.49741 224.521035,1002.25807 C223.292235,985.961412 230.943624,977.329694 247.115294,975.864471 C249.526212,975.643106 251.870871,974.664282 258.912376,972.812047 C254.363106,964.427294 248.633224,957.736659 247.240282,950.241882 C245.769035,942.345035 247.973647,933.588329 249.530729,925.394824 C250.203859,921.824376 254.982024,918.720753 254.997082,915.394259 C255.313318,830.153788 255.245553,744.910306 255.245553,660.046306 C220.653929,649.520188 220.6464,649.520188 220.641882,613.821741 C220.638871,539.928094 220.638871,466.041976 220.638871,390.948141 C181.889506,389.504 192.236424,359.732706 189.474635,335.352471 C154.020141,343.485741 126.125176,361.865035 102.276518,386.615718 C72.8515765,417.150494 56.5037176,454.287059 51.8580706,496.245459 C51.2843294,501.394071 56.0429176,507.928094 59.8558118,512.564706 C64.1701647,517.824753 70.8472471,521.1136 75.3724235,526.247153 C89.5879529,542.366118 86.7508706,550.381929 65.4215529,554.523106 C63.6024471,569.708424 59.0396235,580.888094 39.1920941,575.125082 C31.6009412,572.917459 22.3397647,577.124894 14.1025882,576.155106 C9.67830588,575.635576 2.31604706,570.377035 2.27538824,567.184565 C2.03595294,548.302306 -5.19529412,528.938165 8.85609412,510.721506 C14.1914353,503.809506 12.3949176,491.535059 14.2260706,481.770918 C31.9171765,387.564424 86.1018353,325.7088 177.9456,297.262682 C181.511529,296.158871 184.987106,294.752376 189.461082,293.144094 C189.882729,274.540424 195.346071,259.364141 220.640376,260.4288 L220.640376,218.773082 C220.643388,165.055247 220.025976,111.322353 221.084612,57.6256 C221.348141,44.2593882 224.722824,29.7667765 230.984282,18.1142588 C235.345318,10.0065882 247.396894,0.798117647 255.442824,1.29054118 C264.598588,1.85374118 274.130824,11.6886588 281.569882,19.3671529 C286.459482,24.4133647 287.926212,32.7740235 291.249694,40.3847529 C349.464094,40.3847529 407.579106,40.6512941 465.679059,39.8817882 C470.360847,39.8185412 476.893365,33.5390118 479.219953,28.5801412 C485.969318,14.1839059 493.686965,-0.371952941 511.164235,0.572235294 C530.188047,1.60075294 538.492988,17.6188235 542.567906,34.0901647 C545.560094,46.2034824 546.501271,59.0727529 546.582588,71.6167529 C546.957553,133.520565 546.749741,195.434918 546.749741,259.677365 L546.749741,259.677365 Z" id="Shape" fill="#000000"></path>
                <g id="Group" transform="translate(230.400000, 578.258824)" fill="#2E3192">
                    <path d="M0.168658824,1.48329412 L307.687906,1.48329412 C307.687906,17.9516235 309.190776,36.0402824 306.820518,53.6124235 C306.049506,59.3091765 295.181553,67.8866824 288.855341,67.9529412 C199.189082,68.9091765 109.5168,68.5673412 19.8520471,68.6787765 C6.44818824,68.7013647 0.0572235294,62.4399059 0.147576471,49.1143529 C0.246964706,34.048 0.168658824,18.9876706 0.168658824,1.48329412 L0.168658824,1.48329412 Z" id="Shape"></path>
                    <path d="M73.1151059,116.611012 C73.1075765,121.648188 72.7597176,126.707953 73.1753412,131.707482 C74.5005176,147.612612 64.3237647,148.234541 52.5447529,148.486024 C40.4992,148.739012 33.0360471,145.907953 34.0796235,131.7888 C34.8205176,121.780706 35.0027294,111.594918 34.0239059,101.624471 C32.5135059,86.2825412 39.1273412,82.2979765 53.6771765,82.3491765 C68.0704,82.4003765 75.3528471,86.0084706 73.2265412,101.528094 C72.5519059,106.467388 73.1226353,111.579859 73.1151059,116.611012 L73.1151059,116.611012 Z" id="Shape"></path>
                    <path d="M235.236894,115.394259 C235.221835,110.994071 235.717271,106.527624 235.142024,102.201224 C232.925365,85.7328941 241.103812,82.6066824 255.927718,82.2874353 C272.158118,81.9471059 275.463529,89.0819765 274.233224,102.785506 C273.558588,110.275765 274.1504,117.868424 274.106729,125.415906 C273.989271,146.840094 271.194353,148.951341 250.283671,148.507106 C238.638682,148.254118 234.474918,143.298259 235.1872,132.364047 C235.556141,126.729035 235.251953,121.054871 235.236894,115.394259 L235.236894,115.394259 Z" id="Shape"></path>
                </g>
                <g id="Group" transform="translate(224.376471, 7.529412)" fill="#FFFFFF">
                    <path d="M154.557741,278.437647 C122.343906,278.437647 90.1315765,278.490353 57.9177412,278.386447 C52.2541176,278.371388 46.5694118,277.963294 40.9434353,277.305224 C3.33703529,272.896 1.58569412,270.879624 1.58569412,233.038306 C1.58569412,177.454682 0.986352941,121.859012 1.96065882,66.2904471 C2.24527059,50.1955765 5.08988235,33.4697412 10.5712941,18.4184471 C13.4204235,10.5938824 24.5172706,1.06164706 31.9879529,0.9728 C39.2688941,0.886964706 51.4966588,10.8047059 53.1184941,18.1835294 C57.7822118,39.3953882 70.9827765,39.8125176 87.9495529,39.5776 C139.104376,38.8698353 190.278776,39.1107765 241.438118,39.4887529 C252.015435,39.5670588 258.632282,37.9738353 261.735906,25.8544941 C265.024753,13.0288941 272.521035,-2.85364706 287.418729,0.975811765 C297.401224,3.53731765 305.710682,17.6579765 311.845647,28.2940235 C315.913035,35.3475765 315.824188,45.3797647 315.860329,54.0882824 C316.156988,119.146918 315.474824,184.216094 316.446118,249.259671 C316.668988,264.098635 310.514447,271.259106 297.956894,272.155106 C259.049412,274.942494 220.054588,276.520659 181.088376,278.380424 C172.263906,278.794541 163.403294,278.437647 154.557741,278.437647 L154.557741,278.437647 Z M177.225788,269.754729 C195.937882,270.125176 229.8368,260.827859 259.171388,237.449035 C303.954824,201.764141 304.117459,145.706165 259.416847,109.938447 C231.220706,87.3758118 198.137976,77.9218824 162.743718,77.7381647 C117.8368,77.5047529 76.4416,88.3425882 45.4460235,123.861835 C18.3853176,154.875482 19.4334118,196.654682 47.7424941,226.511812 C77.9158588,258.338635 116.367059,269.221647 177.225788,269.754729 L177.225788,269.754729 Z" id="Shape"></path>
                    <path d="M90.6646588,940.250353 C71.7417412,940.250353 53.6410353,940.754824 35.6171294,939.842259 C31.7726118,939.649506 28.1946353,934.308141 24.4901647,931.338541 C28.2458353,928.146071 31.8057412,922.517082 35.7872941,922.197835 C50.0992,921.063906 64.5586824,921.997553 78.9458824,921.619576 C91.0531765,921.309365 94.8615529,926.619106 90.6646588,940.250353 L90.6646588,940.250353 Z" id="Shape"></path>
                    <path d="M291.561412,940.257882 C272.454776,940.257882 254.786259,940.769882 237.193035,939.872376 C233.176847,939.664565 229.413647,934.606306 225.531482,931.782776 C229.184753,928.450259 232.628706,922.553224 236.533459,922.233976 C250.971859,921.063906 265.578918,921.375624 280.100141,921.819859 C292.620047,922.196329 292.606494,922.611953 291.561412,940.257882 L291.561412,940.257882 Z" id="Shape"></path>
                </g>
                <g id="Group" transform="translate(194.258824, 266.541176)" fill="#8DC63F">
                    <path d="M24.4208941,0.438211765 L24.4208941,53.5100235 L3.38221176,53.5100235 C-1.99529412,16.1972706 1.54503529,6.08978824 24.4208941,0.438211765 L24.4208941,0.438211765 Z" id="Shape"></path>
                    <path d="M373.823247,54.0521412 L354.697035,54.0521412 L354.697035,1.90945882 C377.274729,4.18635294 380.742776,13.9128471 373.823247,54.0521412 L373.823247,54.0521412 Z" id="Shape"></path>
                </g>
                <g id="Group" transform="translate(143.058824, 286.117647)">
                    <path d="M86.6288941,2.90936471 C190.016753,10.6209882 292.196894,12.5545412 396.385882,0.975811765 L396.385882,28.4656941 C396.385882,104.262776 396.416,180.059859 396.361788,255.856941 C396.346729,279.148424 390.598776,285.155388 367.661176,285.185506 C283.026071,285.296941 198.383435,285.111718 113.7408,285.334588 C96.9547294,285.378259 85.2510118,281.008188 85.2720941,261.394071 C85.3684706,177.386918 85.2946824,93.3827765 85.3910588,9.3696 C85.3925647,6.34729412 86.5475765,3.31745882 86.6288941,2.90936471 L86.6288941,2.90936471 Z" id="Shape" fill="#27AAE1"></path>
                    <path d="M437.571765,16.1912471 C452.388141,21.6289882 465.662494,26.5035294 480.323765,31.8885647 C477.902306,39.7342118 475.982306,45.9715765 474.107482,52.0538353 C438.017506,46.7787294 434.276894,43.4236235 437.571765,16.1912471 L437.571765,16.1912471 Z" id="Shape" fill="#00AEEF"></path>
                    <path d="M8.42390588,54.1650824 C5.71632941,46.8314353 3.41232941,40.5790118 0.313223529,32.1776941 C14.8028235,26.9703529 28.5003294,22.0506353 42.4192,17.0511059 C47.5226353,39.1860706 47.5226353,39.1860706 8.42390588,54.1650824 L8.42390588,54.1650824 Z" id="Shape" fill="#00AEEF"></path>
                </g>
                <g id="Group" transform="translate(6.023529, 91.858824)" fill="#C2B59B">
                    <path d="M69.3323294,453.732894 C64.2168471,452.303812 59.1043765,450.874729 53.9873882,449.444141 C52.5131294,459.378447 51.0900706,469.008565 48.8463059,484.142682 C42.9492706,474.149647 40.0082824,469.165176 36.1818353,462.674824 C33.1143529,468.719435 30.5362824,473.801788 26.8152471,481.135435 C22.9632,474.023153 20.1592471,468.8384 17.0586353,463.111529 C14.1477647,468.882071 11.6841412,473.764141 7.53543529,482.001318 C-1.65496471,463.104 -1.34324706,447.126588 3.93185882,430.664282 C7.61374118,419.196988 12.8436706,407.945035 14.6100706,396.181082 C25.6451765,322.7392 63.5286588,268.3136 127.683765,230.7328 C138.244518,245.451294 137.988518,254.260706 122.309271,265.023247 C72.7401412,299.054682 44.8120471,346.968847 40.4736,407.3728 C40.0293647,413.506259 45.056,421.091388 49.5344941,426.2912 C56.5534118,434.447059 65.2694588,441.136188 73.2687059,448.448753 C71.9585882,450.215153 70.6469647,451.971012 69.3323294,453.732894 L69.3323294,453.732894 Z" id="Shape"></path>
                    <path d="M255.451859,831.423247 L255.451859,643.930353 L297.980988,643.930353 L297.980988,831.423247 L255.451859,831.423247 L255.451859,831.423247 Z" id="Shape"></path>
                    <path d="M499.178918,644.026729 L499.178918,831.570824 L456.9088,831.570824 L456.9088,644.026729 L499.178918,644.026729 L499.178918,644.026729 Z" id="Shape"></path>
                    <path d="M746.130071,478.379671 C743.804988,473.586447 741.4784,468.802259 738.448565,462.570918 C735.107012,469.008565 732.528941,473.987012 728.898259,480.980329 C725.083859,473.854494 722.305506,468.660706 718.884141,462.268235 C715.846776,468.586918 713.499106,473.468988 708.594447,483.662306 C705.001412,469.875953 702.682353,460.992753 700.016941,450.755765 C695.401412,451.474071 689.876329,452.332424 684.349741,453.184753 C683.431153,452.035765 682.518588,450.880753 681.609035,449.725741 C688.883953,442.428235 694.957176,432.612894 703.713882,428.434071 C716.396424,422.389459 717.2864,414.218541 715.700706,402.6112 C707.337035,341.502494 677.653082,293.907576 626.257318,259.830965 C623.671718,258.120282 621.063529,256.438212 617.069929,253.824 C620.122353,246.089788 623.033224,238.703435 626.435012,230.088282 C694.839718,270.120659 732.589176,328.228141 742.145506,405.514541 C744.368188,423.485741 750.635671,440.916329 753.776941,458.822776 C754.850635,464.984847 752.079812,471.815529 751.064847,478.349553 C749.418918,478.357082 747.774494,478.372141 746.130071,478.379671 L746.130071,478.379671 Z" id="Shape"></path>
                    <path d="M466.996706,26.1345882 C414.852518,-9.72950588 333.566494,-7.27792941 283.907012,31.6536471 C243.966494,62.9684706 242.210635,112.120471 280.324518,145.564612 C311.547482,172.961129 347.429647,180.217976 401.627859,179.233129 C421.293176,177.414024 443.1872,167.905882 465.633882,154.249035 C519.359247,121.560847 518.943624,61.8571294 466.996706,26.1345882 L466.996706,26.1345882 Z M302.266729,89.9809882 C298.256565,89.7340235 293.016094,86.2072471 293.016094,79.9728941 C293.016094,74.5743059 297.060894,70.7403294 300.992753,70.0325647 C304.697224,69.3684706 312.905788,73.0774588 312.905788,79.9397647 C312.907294,86.2072471 305.963671,90.2083765 302.266729,89.9809882 L302.266729,89.9809882 Z M376.384753,148.4544 C345.544282,147.952941 334.998588,142.769694 332.696094,130.163953 C347.114918,133.4528 362.776094,139.690165 378.491482,139.855812 C394.2144,140.018447 410.000565,134.109365 425.506635,130.912376 C422.817129,143.555765 410.306259,149.005553 376.384753,148.4544 L376.384753,148.4544 Z M466.977129,80.8929882 C466.421459,84.6140235 462.486588,89.9056941 456.145318,89.8966588 C452.627576,89.8921412 446.945882,83.0674824 446.974494,79.3012706 C447.004612,75.3965176 451.886682,69.9753412 457.018729,69.9753412 C464.218353,69.9753412 467.552376,77.0379294 466.977129,80.8929882 L466.977129,80.8929882 Z" id="Shape"></path>
                </g>
            </g>
            <rect id="Rectangle" x="0" y="0" width="1024" height="1024"></rect>
        </g>
    </g>
</svg>