<?xml version="1.0" encoding="utf-8"?>
<!-- Generator: Adobe Illustrator 16.0.0, SVG Export Plug-In . SVG Version: 6.00 Build 0)  -->
<!DOCTYPE svg PUBLIC "-//W3C//DTD SVG 1.1//EN" "http://www.w3.org/Graphics/SVG/1.1/DTD/svg11.dtd" [
	<!ENTITY ns_flows "http://ns.adobe.com/Flows/1.0/">
	<!ENTITY ns_extend "http://ns.adobe.com/Extensibility/1.0/">
	<!ENTITY ns_ai "http://ns.adobe.com/AdobeIllustrator/10.0/">
	<!ENTITY ns_graphs "http://ns.adobe.com/Graphs/1.0/">
]>
<svg version="1.1" id="Layer_1" xmlns:x="&ns_extend;" xmlns:i="&ns_ai;" xmlns:graph="&ns_graphs;"
	 xmlns="http://www.w3.org/2000/svg" xmlns:xlink="http://www.w3.org/1999/xlink" xmlns:a="http://ns.adobe.com/AdobeSVGViewerExtensions/3.0/"
	 x="0px" y="0px" width="864px" height="864px" viewBox="0 0 864 864" enable-background="new 0 0 864 864" xml:space="preserve">
<path fill-rule="evenodd" clip-rule="evenodd" d="M543.076,263.442c11.983,0.68,18.23,6.015,19.628,17.675
	c0.354,2.932,5.599,6.503,9.259,7.63c52.984,16.332,87.209,51.17,103.217,103.999c2.287,7.546,2.65,15.653,4.555,23.342
	c1.549,6.282,5.229,12.195,5.902,18.492c1.217,11.363,2.033,23.066,0.35,34.228c-0.389,2.563-11.516,4.664-17.797,4.964
	c-20.209,0.975-20.229,0.61-22.207-13.36c-4.652-2.622-11.756-4.737-11.82-7.055c-0.133-4.762,2.174-12.116,5.795-14.04
	c22.23-11.811,13.912-29.245,8.49-45.104c-13.936-40.786-42.104-67.404-84.867-80.938c-4.438,14.242,6.385,37.298-21.512,36.782
	c0,36.127,0,71.335,0,106.547c0,14.266,0.004,28.537,0,42.808c-0.01,22.909-0.65,23.76-22.827,29.516
	c-0.231,3.296-0.698,6.912-0.704,10.532c-0.049,51.2-0.172,102.4,0.217,153.6c0.035,4.383,4.469,8.594,5.235,13.159
	c0.881,5.209,0.808,10.945-0.462,16.046c-1.176,4.732-4.479,8.934-6.618,12.938c2.991,2.224,3.587,3.011,4.311,3.153
	c14.359,2.888,20.577,8.647,18.989,18.423c-1.993,12.259-10.72,14.118-21.47,14.079c-35.05-0.128-37.071,2.208-35.999-35.636
	c0.123-4.275-4.098-8.506-5.092-13.021c-1.088-4.939-2.543-13.813-0.748-14.694c9.096-4.477,5.963-11.969,5.986-18.324
	c0.207-53.27,0.119-106.541,0.119-160.84c-32.242,0-63.799,0-96.369,0c-0.256,4.349-0.704,8.412-0.709,12.476
	c-0.059,50.358-0.211,100.723,0.188,151.08c0.037,4.885,4.041,9.622,5.314,14.654c1.08,4.275,2.846,11.413,0.918,12.908
	c-11.041,8.555-5.942,19.958-6.075,29.944c-0.22,16.356-3.827,21.118-20.042,21.31c-6.293,0.074-12.593-0.103-18.885,0.035
	c-9.998,0.226-17.385-2.74-18.25-14.188c-0.816-10.822,4.265-16.554,15.004-17.527c1.601-0.147,3.158-0.797,7.834-2.027
	c-3.021-5.568-6.826-10.011-7.751-14.988c-0.977-5.244,0.487-11.059,1.521-16.5c0.447-2.371,3.62-4.432,3.63-6.641
	c0.21-56.605,0.165-113.212,0.165-169.567c-22.971-6.99-22.976-6.99-22.979-30.696c-0.002-49.07-0.002-98.135-0.002-148.002
	c-25.732-0.959-18.861-20.729-20.695-36.919c-23.544,5.401-42.068,17.606-57.905,34.042c-19.54,20.277-30.396,44.938-33.481,72.801
	c-0.381,3.419,2.779,7.758,5.311,10.837c2.865,3.493,7.299,5.677,10.304,9.086c9.44,10.704,7.556,16.027-6.608,18.777
	c-1.208,10.084-4.238,17.508-17.418,13.681c-5.041-1.466-11.191,1.328-16.661,0.684c-2.938-0.345-7.827-3.837-7.854-5.957
	c-0.159-12.539-4.961-25.398,4.37-37.495c3.543-4.59,2.35-12.741,3.566-19.225c11.748-62.559,47.73-103.635,108.72-122.525
	c2.368-0.733,4.676-1.667,7.647-2.735c0.28-12.354,3.908-22.432,20.705-21.725c0-9.498,0-18.58,0-27.662
	c0.002-35.672-0.408-71.354,0.295-107.012c0.175-8.876,2.416-18.5,6.574-26.238c2.896-5.384,10.899-11.499,16.242-11.172
	c6.08,0.374,12.41,6.905,17.35,12.004c3.247,3.351,4.221,8.903,6.428,13.957c38.658,0,77.25,0.177,115.832-0.334
	c3.109-0.042,7.447-4.212,8.992-7.505c4.482-9.56,9.607-19.226,21.213-18.599c12.633,0.683,18.148,11.32,20.854,22.258
	c1.987,8.044,2.612,16.59,2.666,24.92C543.214,179.666,543.076,220.781,543.076,263.442z"/>
<g>
	<path fill-rule="evenodd" clip-rule="evenodd" fill="#2E3192" d="M333.112,475.985c68.738,0,135.649,0,204.212,0
		c0,10.936,0.998,22.948-0.576,34.617c-0.512,3.783-7.729,9.479-11.93,9.523c-59.544,0.635-119.092,0.408-178.635,0.482
		c-8.901,0.015-13.145-4.143-13.085-12.992C333.164,497.61,333.112,487.609,333.112,475.985z"/>
	<path fill-rule="evenodd" clip-rule="evenodd" fill="#2E3192" d="M381.553,552.437c-0.005,3.345-0.236,6.705,0.04,10.025
		c0.88,10.562-5.878,10.975-13.7,11.142c-7.999,0.168-12.955-1.712-12.262-11.088c0.492-6.646,0.613-13.41-0.037-20.031
		c-1.003-10.188,3.389-12.834,13.051-12.8c9.558,0.034,14.394,2.43,12.982,12.736C381.179,545.701,381.558,549.096,381.553,552.437z
		"/>
	<path fill-rule="evenodd" clip-rule="evenodd" fill="#2E3192" d="M489.212,551.629c-0.01-2.922,0.319-5.888-0.063-8.761
		c-1.472-10.936,3.959-13.012,13.803-13.224c10.778-0.226,12.973,4.512,12.156,13.612c-0.448,4.974-0.055,10.016-0.084,15.028
		c-0.078,14.227-1.934,15.629-15.82,15.334c-7.733-0.168-10.498-3.459-10.025-10.72
		C489.424,559.156,489.222,555.388,489.212,551.629z"/>
</g>
<g>
	<path fill-rule="evenodd" clip-rule="evenodd" fill="#FFFFFF" d="M431.636,280.9c-21.392,0-42.783,0.035-64.175-0.034
		c-3.761-0.01-7.536-0.281-11.272-0.718c-24.973-2.928-26.136-4.267-26.136-29.396c0-36.911-0.398-73.83,0.249-110.731
		c0.189-10.688,2.078-21.795,5.718-31.79c1.892-5.196,9.261-11.526,14.222-11.585c4.835-0.057,12.955,6.529,14.032,11.429
		c3.097,14.086,11.863,14.363,23.13,14.207c33.97-0.47,67.953-0.31,101.926-0.059c7.024,0.052,11.418-1.006,13.479-9.054
		c2.184-8.517,7.162-19.064,17.055-16.521c6.629,1.701,12.147,11.078,16.221,18.141c2.701,4.684,2.642,11.346,2.666,17.129
		c0.197,43.203-0.256,86.413,0.389,129.606c0.148,9.854-3.939,14.609-12.278,15.204c-25.837,1.851-51.732,2.899-77.608,4.134
		C443.394,281.137,437.51,280.9,431.636,280.9z M446.689,275.134c12.426,0.246,34.937-5.928,54.417-21.453
		c29.739-23.697,29.847-60.923,0.163-84.675c-18.724-14.983-40.693-21.261-64.197-21.383c-29.821-0.155-57.31,7.042-77.893,30.629
		c-17.97,20.595-17.274,48.339,1.525,68.166C380.741,267.553,406.275,274.78,446.689,275.134z"/>
	<path fill-rule="evenodd" clip-rule="evenodd" fill="#FFFFFF" d="M389.207,720.385c-12.566,0-24.586,0.335-36.555-0.271
		c-2.553-0.128-4.929-3.675-7.389-5.647c2.494-2.12,4.858-5.858,7.502-6.07c9.504-0.753,19.106-0.133,28.66-0.384
		C389.465,707.807,391.994,711.333,389.207,720.385z"/>
	<path fill-rule="evenodd" clip-rule="evenodd" fill="#FFFFFF" d="M522.615,720.39c-12.688,0-24.421,0.34-36.104-0.256
		c-2.667-0.138-5.166-3.497-7.744-5.372c2.426-2.213,4.713-6.129,7.306-6.341c9.588-0.777,19.288-0.57,28.931-0.275
		C523.318,708.396,523.309,708.672,522.615,720.39z"/>
</g>
<g>
	<path fill-rule="evenodd" clip-rule="evenodd" fill="#8DC63F" d="M325.217,268.291c0,12.221,0,23.25,0,35.243
		c-4.7,0-9.342,0-13.971,0C307.675,278.756,310.026,272.044,325.217,268.291z"/>
	<path fill-rule="evenodd" clip-rule="evenodd" fill="#8DC63F" d="M557.242,303.894c-3.867,0-7.842,0-12.701,0
		c0-11.757,0-23.155,0-34.626C559.534,270.78,561.837,277.239,557.242,303.894z"/>
</g>
<g>
	<path fill-rule="evenodd" clip-rule="evenodd" fill="#27AAE1" d="M332.527,282.932c68.656,5.121,136.51,6.405,205.698-1.284
		c0,5.16,0,11.708,0,18.255c0,50.334,0.02,100.668-0.016,151.002c-0.01,15.467-3.827,19.456-19.059,19.476
		c-56.203,0.074-112.411-0.049-168.619,0.099c-11.147,0.029-18.919-2.873-18.905-15.898c0.064-55.786,0.015-111.57,0.079-167.36
		C331.706,285.215,332.473,283.203,332.527,282.932z"/>
	<path fill-rule="evenodd" clip-rule="evenodd" fill="#00AEEF" d="M565.575,291.752c9.839,3.611,18.654,6.848,28.39,10.424
		c-1.608,5.21-2.883,9.352-4.128,13.391C565.871,312.064,563.387,309.836,565.575,291.752z"/>
	<path fill-rule="evenodd" clip-rule="evenodd" fill="#00AEEF" d="M280.594,316.969c-1.798-4.87-3.328-9.022-5.386-14.601
		c9.622-3.458,18.718-6.725,27.961-10.045C306.558,307.022,306.558,307.022,280.594,316.969z"/>
</g>
<g>
	<path fill-rule="evenodd" clip-rule="evenodd" fill="#C2B59B" d="M230.041,453.307c-3.397-0.949-6.792-1.898-10.19-2.848
		c-0.979,6.597-1.924,12.992-3.414,23.042c-3.916-6.636-5.869-9.946-8.41-14.256c-2.037,4.014-3.749,7.389-6.22,12.259
		c-2.558-4.723-4.42-8.166-6.479-11.969c-1.933,3.832-3.569,7.074-6.324,12.544c-6.103-12.549-5.896-23.159-2.393-34.091
		c2.445-7.615,5.918-15.087,7.091-22.899c7.328-48.77,32.485-84.912,75.088-109.868c7.013,9.774,6.843,15.624-3.569,22.771
		c-32.917,22.599-51.463,54.417-54.344,94.529c-0.295,4.073,3.043,9.11,6.017,12.563c4.661,5.416,10.449,9.858,15.761,14.714
		C231.785,450.971,230.914,452.137,230.041,453.307z"/>
	<path fill-rule="evenodd" clip-rule="evenodd" fill="#C2B59B" d="M353.636,704.117c0-41.917,0-82.919,0-124.507
		c9.376,0,18.418,0,28.242,0c0,40.85,0,82.212,0,124.507C372.91,704.117,363.922,704.117,353.636,704.117z"/>
	<path fill-rule="evenodd" clip-rule="evenodd" fill="#C2B59B" d="M515.486,579.674c0,41.834,0,82.777,0,124.541
		c-9.387,0-18.33,0-28.07,0c0-41.513,0-82.736,0-124.541C496.724,579.674,505.736,579.674,515.486,579.674z"/>
	<path fill-rule="evenodd" clip-rule="evenodd" fill="#C2B59B" d="M679.477,469.674c-1.544-3.183-3.089-6.36-5.101-10.498
		c-2.219,4.275-3.931,7.581-6.342,12.225c-2.533-4.732-4.378-8.181-6.65-12.426c-2.017,4.196-3.576,7.438-6.833,14.207
		c-2.386-9.155-3.926-15.054-5.696-21.852c-3.065,0.477-6.734,1.047-10.404,1.613c-0.61-0.763-1.216-1.53-1.82-2.297
		c4.831-4.846,8.864-11.364,14.679-14.139c8.422-4.014,9.013-9.44,7.96-17.148c-5.554-40.58-25.266-72.186-59.396-94.815
		c-1.717-1.136-3.449-2.253-6.101-3.989c2.027-5.136,3.96-10.041,6.219-15.762c45.425,26.584,70.493,65.171,76.839,116.494
		c1.476,11.934,5.638,23.509,7.724,35.4c0.713,4.092-1.127,8.628-1.801,12.967C681.661,469.659,680.569,469.669,679.477,469.674z"/>
	<path fill-rule="evenodd" clip-rule="evenodd" fill="#C2B59B" d="M494.115,169.355c-34.627-23.816-88.606-22.188-121.583,3.665
		c-26.523,20.795-27.689,53.435-2.379,75.644c20.734,18.193,44.562,23.012,80.553,22.358c13.059-1.208,27.598-7.522,42.504-16.591
		C528.887,232.724,528.611,193.077,494.115,169.355z M384.724,211.753c-2.663-0.164-6.143-2.506-6.143-6.646
		c0-3.585,2.686-6.131,5.297-6.601c2.46-0.441,7.911,2.022,7.911,6.579C391.79,209.247,387.179,211.904,384.724,211.753z
		 M433.943,250.583c-20.48-0.333-27.483-3.775-29.012-12.146c9.575,2.184,19.975,6.326,30.411,6.436
		c10.441,0.108,20.924-3.816,31.221-5.939C464.777,247.33,456.469,250.949,433.943,250.583z M494.102,205.718
		c-0.369,2.471-2.982,5.985-7.193,5.979c-2.336-0.003-6.109-4.535-6.09-7.036c0.02-2.593,3.262-6.193,6.67-6.193
		C492.27,198.468,494.484,203.158,494.102,205.718z"/>
</g>
</svg>
