<?xml version="1.0" encoding="utf-8"?>
<!-- Generator: Adobe Illustrator 16.0.0, SVG Export Plug-In . SVG Version: 6.00 Build 0)  -->
<!DOCTYPE svg PUBLIC "-//W3C//DTD SVG 1.1//EN" "http://www.w3.org/Graphics/SVG/1.1/DTD/svg11.dtd" [
	<!ENTITY ns_flows "http://ns.adobe.com/Flows/1.0/">
	<!ENTITY ns_extend "http://ns.adobe.com/Extensibility/1.0/">
	<!ENTITY ns_ai "http://ns.adobe.com/AdobeIllustrator/10.0/">
	<!ENTITY ns_graphs "http://ns.adobe.com/Graphs/1.0/">
]>
<svg version="1.1" id="Layer_1" xmlns:x="&ns_extend;" xmlns:i="&ns_ai;" xmlns:graph="&ns_graphs;"
	 xmlns="http://www.w3.org/2000/svg" xmlns:xlink="http://www.w3.org/1999/xlink" xmlns:a="http://ns.adobe.com/AdobeSVGViewerExtensions/3.0/"
	 x="0px" y="0px" width="864px" height="864px" viewBox="0 0 864 864" enable-background="new 0 0 864 864" xml:space="preserve">
<path fill-rule="evenodd" clip-rule="evenodd" d="M523.704,380.041c0,34.61,2.251,69.408-0.62,103.773
	c-2.994,35.775-21.184,65.631-51.234,92.508c22.733,7.92,43.102,15.01,64.799,22.562c-28.924,21.918-58.958,11.926-90.24,5.244
	c0,42.277,0,82.803,0,123.449c33.55,8.588,38.999,14.299,35.654,37.709c-0.294,2.064-0.146,4.438-1.15,6.109
	c-15.335,25.662-40.132,11.068-60.639,13.264c-14.911,1.59-19.527-10.801-19.568-23.934c-0.164-43.133-0.098-86.275-0.123-129.418
	c0-8.246,0-16.502,0-26.51c-35.915,0-70.142,0-106.203,0c0,49.758,0.064,98.348-0.025,146.932
	c-0.049,29.789-3.915,33.525-33.803,33.615c-3.482,0.008-6.957,0-10.44,0c-30.075-0.018-36.2-3.883-37.376-23.582
	c-1.395-23.33,4.952-29.301,37.286-32.719c0-43.158,0.343-86.676-0.538-130.176c-0.09-4.324-7.031-9.488-11.877-12.57
	c-45.426-28.941-66.357-71.562-68.682-123.971c-1.224-27.48-0.221-55.067-0.221-88.764c-28.598,40.973-42.277,80.788-45.915,123.946
	c-2.104,24.895-0.881,50.084-3.189,74.955c-0.645,6.973-8.45,18.744-13.019,18.768c-9.593,0.059-17.717-5.863-18.043-19.453
	c-2.187-90.494,10.693-176.11,74.261-246.782c3.319-3.695,5.408-9.715,5.62-14.756c0.693-16.559,0.262-33.158,0.262-49.921
	c-34.97,4.502-47.85-7.594-49.807-41.984c-3.197-56.153,26.281-93.333,72.531-116.09c29.871-14.699,63.796-24.667,96.881-28.574
	c70.02-8.287,140.332-7.472,206.649,22.538c56.984,25.784,85.143,70.68,79.954,125.993c-3.115,33.167-13.703,42.025-47.979,39.031
	c-2.446,28.908-3.417,54.831,18.443,80.648c40.776,48.167,56.479,107.362,59.391,169.903c0.873,18.736,0.302,37.594,2.129,56.225
	c1.42,14.439-8.834,21.967-17.757,22.986c-12.334,1.412-15.393-10.521-15.229-22.008c0.652-46.607,1.428-93.355-16.819-137.566
	c-7.554-18.312-16.674-35.989-25.083-53.958C529.227,378.32,526.461,379.184,523.704,380.041z"/>
<g>
	<path fill-rule="evenodd" clip-rule="evenodd" fill="#FFFFFF" d="M487.063,234.692c-0.497,26.167-22.138,46.968-48.419,46.519
		c-25.989-0.448-47.784-22.758-47.091-48.216c0.718-26.396,21.747-46.16,48.836-45.916
		C466.989,187.324,487.569,208.312,487.063,234.692z"/>
	<path fill-rule="evenodd" clip-rule="evenodd" fill="#FFFFFF" d="M257.518,187.071c27.611,0.18,46.471,19.544,46.258,47.482
		c-0.204,26.918-20.816,47.262-47.384,46.772c-26.576-0.498-47.27-21.714-46.837-48.044
		C209.996,206.249,230.086,186.884,257.518,187.071z"/>
</g>
<g>
	<path fill-rule="evenodd" clip-rule="evenodd" fill="#FBB040" d="M168.648,361.99c-47.743,58.902-57.792,128.783-54.554,203.476
		c0.359,8.647-3.437,18.517-9.32,17.947c-5.868-0.567-7.887-10.818-7.883-16.561c-0.228-82.524,9.625-160.905,64.661-225.859
		c12.643-14.919,17.064-30.107,17.073-49.138c0-17.807,4.388-35.613,10.123-53.387c9.935,31.094,28.647,48.876,59.358,51.911
		c-6.583,21.037-13.948,41.062-19.014,61.659c-6.249,25.409,1.615,43.575,18.989,49.04c20.89,6.566,35.312-1.248,47.302-26.282
		c36.25,19.789,72.597,19.691,108.357-1.95c5.914,24.536,16.763,32.236,39.757,29.047c18.517-2.569,27.93-15.082,24.161-38.517
		c-3.883-24.21-11.289-47.857-17.391-72.711c26.91-3.067,46.65-19.83,53.95-49.603c19.716,13.965,15.286,33.909,14.364,52.033
		c-0.93,18.476,4.389,32.473,16.453,46.968c51.699,62.115,66.438,135.887,63.176,214.512c-0.155,3.769,0.431,28.837-7.586,28.457
		c-8.161,1.897-6.403-26.459-7.031-31.386c-4.413-34.985-5.082-70.737-12.807-104.923c-5.514-24.455-19.756-47.025-30.906-70.061
		c-3.084-6.371-9.014-11.371-18.981-15.727c-0.653,6.925-1.624,13.842-1.901,20.792c-1.443,36.723,0.131,73.846-4.82,110.079
		c-5.106,37.342-27.081,66.756-59.701,86.472c-10.816,6.542-15.555,13.508-15.27,26.421c0.823,37.555,0.832,75.158,0.017,112.721
		c-0.311,14.373,2.887,21.037,18.866,22.84c6.885,0.783,18.134,13.451,17.293,19.275c-1.035,7.268-11.656,14.617-19.739,18.932
		c-5.425,2.888-13.646,0.221-20.58,0.653c-18.37,1.142-26.519-6.371-26.176-25.63c0.808-45.915-0.228-91.855,0.514-137.779
		c0.245-15.262-4.617-21.029-20.27-20.58c-31.935,0.922-63.926,0.277-98.569,0.277c-0.514,8.442-1.33,15.734-1.354,23.019
		c-0.122,43.15,0.783,86.326-0.685,129.419c-0.343,10.204-6.934,27.457-13.255,28.754c-15.335,3.148-32.497,0.064-48.232-3.524
		c-3.288-0.75-5.84-14.911-4.495-22.097c0.873-4.649,9.519-11.184,14.584-11.102c19.593,0.31,22.432-9.789,21.975-26.404
		c-1.003-36.16,0.539-72.401-0.946-108.521c-0.351-8.41-6.615-19.585-13.638-24.21c-40.704-26.845-63.135-63.837-65.59-112.281
		c-1.371-27.073-0.465-54.26-0.93-81.382c-0.139-8.018-1.452-16.012-2.227-24.022C173.395,362.708,171.021,362.349,168.648,361.99z"
		/>
	<path fill-rule="evenodd" clip-rule="evenodd" fill="#FBB040" d="M381.594,243.681c-21.412,0-43.469,0-66.137,0
		c-2.202-11.599-2.993-22.701-6.46-32.905c-15.27-44.969-71.456-56.112-101.922-19.781c-10.229,12.187-18.206,26.682-25.083,41.136
		c-7.244,15.229-17.595,23.745-34.21,20.434c-16.061-3.206-17.529-16.534-18.924-30.516c-5.147-51.772,20.034-86.529,62.262-110.772
		C248.766,78.176,312.48,74.48,376.741,77.76c41.609,2.129,82.957,8.075,120.56,28.125c44.668,23.802,75.191,57.115,71.618,111.792
		c-0.986,15.083-0.979,32.432-21.379,35.059c-20.246,2.61-27.073-10.75-35.116-27.644c-12.243-25.71-28.027-51.544-61.267-55.157
		c-25.181-2.741-45.9,7.341-57.719,29.202C386.554,211.852,385.583,227.775,381.594,243.681z"/>
	<path fill-rule="evenodd" clip-rule="evenodd" fill="#FBB040" d="M349.708,254.954c22.146-3.605,38.672,9.993,58.853,22.065
		c35.532,21.265,45.329,51.658,50.019,87.72c1.786,13.704-2.203,23.704-16.714,25.98c-13.524,2.121-22.758-0.326-26.755-17.579
		c-5.506-23.745-15.743-46.429-24.553-69.334c-1.313-3.418-5.824-7.847-8.973-7.945c-22.375-0.701-44.79-0.612-67.181-0.098
		c-2.61,0.065-6.419,3.752-7.472,6.583c-8.981,24.128-16.55,48.828-26.632,72.467c-2.961,6.95-12.929,15.686-19.12,15.27
		c-7.986-0.539-20.335-8.108-22.22-15.001c-7.863-28.786,14.838-75.729,41.087-91.016c4.185-2.439,9.054-4.853,11.665-8.622
		C305.539,255.451,325.809,253.624,349.708,254.954z"/>
	<path fill-rule="evenodd" clip-rule="evenodd" fill="#FBB040" d="M501.184,604.187c-15.417-2.969-30.842-5.93-49.537-9.527
		c22.195-19.274,48.822,2.5,50.899,2.415c3.849,1.13,21.115,3.199,20.893,4.366C523.209,602.643,504.649,604.187,501.184,604.187z"
		/>
</g>
<path fill-rule="evenodd" clip-rule="evenodd" fill="#9E1F63" d="M303.778,365.611c0,20.833,87.759,22.448,87.759,0
	C391.538,333.667,303.778,333.667,303.778,365.611z"/>
</svg>
