<?xml version="1.0" encoding="UTF-8"?>
<svg width="741px" height="1024px" viewBox="0 0 741 1024" version="1.1" xmlns="http://www.w3.org/2000/svg" xmlns:xlink="http://www.w3.org/1999/xlink">
    <!-- Generator: Sketch 40.3 (33839) - http://www.bohemiancoding.com/sketch -->
    <title>Group 2</title>
    <desc>Created with Sketch.</desc>
    <defs></defs>
    <g id="Page-1" stroke="none" stroke-width="1" fill="none" fill-rule="evenodd">
        <g id="Group-2" transform="translate(-134.000000, 0.000000)">
            <g id="jake" transform="translate(134.061281, 0.000000)">
                <path d="M621.394006,443.601649 C621.394006,492.961872 624.604345,542.590217 620.509772,591.601025 C616.239777,642.622752 590.297493,685.202897 547.440669,723.53444 C579.862106,734.829816 608.912045,744.94146 639.855955,755.712 C598.605014,786.971097 555.771008,772.720669 511.157125,763.190908 L511.157125,939.251877 C559.005593,951.499944 566.776869,959.64488 562.006284,993.031844 C561.586986,995.975487 561.798061,999.361248 560.366173,1001.7444 C538.495643,1038.34313 503.130563,1017.5294 473.883811,1020.6613 C452.617983,1022.92894 446.034719,1005.25709 445.976245,986.527019 C445.742351,925.011432 445.836479,863.483008 445.800825,801.953159 L445.800825,764.145025 L294.335822,764.145025 C294.335822,835.109081 294.427097,904.407354 294.300167,973.69707 C294.230284,1016.18166 288.716657,1021.50988 246.090875,1021.63824 C241.124903,1021.64965 236.168914,1021.63824 231.201515,1021.63824 C188.309036,1021.61257 179.57366,1016.10037 177.896468,988.005972 C175.906942,954.733103 184.95893,946.217359 231.073159,941.342663 C231.073159,879.791421 231.56234,817.726752 230.305872,755.687755 C230.177515,749.520936 220.278373,742.156123 213.367086,737.760624 C148.581259,696.485437 118.729805,635.700056 115.413928,560.955187 C113.668279,521.763655 115.098741,482.419521 115.098741,434.361404 C74.3127354,492.796435 54.8039666,549.579944 49.6155097,611.131187 C46.6148189,646.636033 48.3590418,682.560178 45.0674095,718.030797 C44.1475209,727.975577 33.016156,744.763187 26.499922,744.797415 C12.8185404,744.88156 1.23222284,736.435699 0.767286908,717.053861 C-2.35177716,587.99278 16.0174708,465.888624 106.677125,365.097359 C111.41063,359.82761 114.389928,351.241983 114.692279,344.052591 C115.680624,320.436412 115.065939,296.763187 115.065939,272.856067 C65.1922897,279.276747 46.8230418,262.025627 44.032,212.979164 C39.4724903,132.894663 81.5135376,79.8691476 147.47454,47.4134819 C190.076078,26.4500056 238.459365,12.233805 285.644657,6.66170474 C385.50605,-5.15708078 485.783889,-3.99474095 580.364123,38.8050362 C661.633783,75.5777604 701.793694,139.60771 694.393226,218.494217 C689.950663,265.796457 674.850228,278.429593 625.966351,274.159599 C622.477905,315.387721 621.093081,352.358685 652.26946,389.178474 C710.423532,457.873471 732.818897,542.296423 736.971944,631.491387 C738.217003,658.212368 737.402652,685.107343 740.00829,711.678574 C742.033471,732.271242 727.409382,743.007554 714.683543,744.460836 C697.092992,746.474607 692.730295,729.455955 692.964189,713.073382 C693.894061,646.603231 695.00078,579.931989 668.977203,516.878975 C658.203811,490.762696 645.197014,465.552045 633.204234,439.924947 C629.270819,441.147187 625.325994,442.379409 621.394006,443.601649 L621.394006,443.601649 Z" id="Shape" fill="#000000"></path>
                <g id="Group" transform="translate(172.568245, 168.289694)" fill="#FFFFFF">
                    <path d="M396.568958,68.0175599 C395.860145,105.336513 364.9961,135.002563 327.514563,134.362206 C290.449471,133.723276 259.365794,101.905114 260.354139,65.5973259 C261.378139,27.9517772 291.369359,-0.235320334 330.003253,0.112668524 C367.939744,0.462083565 397.290607,30.3948301 396.568958,68.0175599 L396.568958,68.0175599 Z" id="Shape"></path>
                    <path d="M69.1955877,0.101259053 C108.57395,0.357972145 135.471777,27.9745961 135.168,67.8193203 C134.877058,106.209337 105.480557,135.223621 67.5897047,134.524791 C29.6874429,133.814552 0.173994429,103.556635 0.791532033,66.0052145 C1.42047911,27.4526128 30.0725125,-0.165437326 69.1955877,0.101259053 L69.1955877,0.101259053 Z" id="Shape"></path>
                </g>
                <g id="Group" transform="translate(11.409471, 9.983287)" fill="#FBB040">
                    <path d="M103.609404,407.874318 C35.5191086,491.879398 21.1873872,591.542552 25.8053705,698.068501 C26.3173705,710.400713 20.9035766,724.477148 12.513337,723.664223 C4.14449025,722.855577 1.26502507,708.235766 1.27072981,700.045192 C0.945559889,582.350797 14.9977493,470.565081 93.4892033,377.928735 C111.520446,356.651499 117.825604,334.990618 117.83844,307.848914 C117.83844,282.452858 124.096535,257.058228 132.275699,231.709237 C146.444836,276.054997 173.131588,301.415398 216.93112,305.743866 C207.542552,335.746496 197.038708,364.305827 189.81366,393.680936 C180.901437,429.918841 192.116947,455.826897 216.895465,463.620992 C246.688446,472.985315 267.256869,461.841114 284.356813,426.138028 C336.055978,454.36078 387.893482,454.221014 438.893816,423.356969 C447.328267,458.349816 462.800936,469.331432 495.594607,464.783331 C522.003253,461.119465 535.427922,443.273627 530.052635,409.851008 C524.514763,375.323097 513.952446,341.598128 505.249872,306.151755 C543.628479,301.777649 571.781348,277.870529 582.19249,235.408758 C610.311131,255.325415 603.993136,283.769226 602.678195,309.617382 C601.351844,335.967554 608.937716,355.92985 626.143198,376.602384 C699.875476,465.189794 720.896,570.402228 716.243788,682.535933 C716.02273,687.91122 716.858474,723.662797 705.424758,723.120847 C693.785671,725.826318 696.292903,685.385448 695.397259,678.358641 C689.10351,628.463599 688.149393,577.474674 677.132123,528.719153 C669.268145,493.841827 648.956435,461.652858 633.054485,428.799287 C628.656134,419.71307 620.198864,412.58215 605.984089,406.369694 C605.052791,416.246017 603.667967,426.11093 603.272914,436.022908 C601.21493,488.396657 603.459744,541.34088 596.398708,593.015799 C589.116613,646.272357 557.776223,688.222128 511.254106,716.340769 C495.828501,725.670864 489.069816,735.60566 489.476279,754.021972 C490.650028,807.582306 490.662864,861.211097 489.500524,914.782841 C489.056981,935.281382 493.617916,944.785471 516.406908,947.35688 C526.226184,948.473582 542.269326,966.540479 541.069905,974.846574 C539.593805,985.212078 524.446306,995.693103 512.918462,1001.84709 C505.181415,1005.96591 493.456758,1002.16227 483.567599,1002.77838 C457.368602,1004.40709 445.74663,993.692167 446.235811,966.225292 C447.388167,900.742061 445.910641,835.223175 446.968869,769.727109 C447.318284,747.960691 440.384178,739.735889 418.060123,740.376245 C372.514942,741.691187 326.889894,740.771298 277.482607,740.771298 C276.749549,752.811142 275.585783,763.210875 275.551554,773.600624 C275.37756,835.140457 276.668256,896.71737 274.574618,958.175911 C274.085437,972.728691 264.68546,997.334641 255.670552,999.184401 C233.800022,1003.67403 209.323855,999.275677 186.882852,994.158529 C182.19356,993.088891 178.553939,972.892702 180.472156,962.644145 C181.717214,956.013816 194.048,946.693705 201.271621,946.810652 C229.214841,947.252769 233.263777,932.849738 232.612011,909.153694 C231.181549,857.582886 233.380724,805.896557 231.262841,754.382797 C230.762251,742.388591 221.828635,726.450986 211.812546,719.854886 C153.761159,681.568981 121.770429,628.811588 118.269148,559.721538 C116.31385,521.110462 117.605972,482.336802 116.942797,443.655844 C116.744557,432.220702 114.871978,420.819788 113.766685,409.396056 C110.379499,408.898318 106.993738,408.386318 103.609404,407.874318 L103.609404,407.874318 Z" id="Shape"></path>
                    <path d="M407.309549,239.143933 L312.986028,239.143933 C309.845571,222.601627 308.71746,206.768134 303.77288,192.215354 C281.995053,128.081292 201.863487,112.189326 158.41337,164.004011 C143.824936,181.384914 132.448267,202.057448 122.640401,222.67151 C112.309125,244.390864 97.5466964,256.536245 73.8506518,251.81415 C50.9447131,247.241805 48.8510752,228.233627 46.8615487,208.292724 C39.5209805,134.456334 75.4337159,84.8864624 135.658607,50.3114875 C217.872401,3.10337604 308.740279,-2.16779944 400.388279,2.51008357 C459.730362,5.54642897 518.700212,14.0265181 572.329003,42.6215042 C636.033783,76.567532 679.565192,124.077994 674.469437,202.057448 C673.06322,223.568579 673.073203,248.311443 643.979053,252.058028 C615.104535,255.780368 605.367978,236.726552 593.897181,212.632602 C576.436412,175.965415 553.925526,139.121382 506.519175,133.968579 C470.60644,130.059409 441.057337,144.438195 424.20127,175.616 C414.383421,193.749928 412.998596,216.459053 407.309549,239.143933 L407.309549,239.143933 Z" id="Shape"></path>
                    <path d="M361.834251,255.221304 C393.418518,250.079911 416.987632,269.473159 445.769448,286.69005 C496.444613,317.01785 510.416936,360.363855 517.105738,411.794897 C519.652903,431.33932 513.963855,445.601159 493.268501,448.847153 C473.980791,451.872089 460.811409,448.382217 455.110953,423.776267 C447.258384,389.911532 432.65854,357.559978 420.093861,324.893237 C418.221281,320.01854 411.787766,313.701972 407.296713,313.562206 C375.38585,312.562451 343.417939,312.689382 311.484256,313.42244 C307.761916,313.515142 302.329582,318.773482 300.827811,322.811008 C288.019253,357.221972 277.224468,392.448713 262.845682,426.162273 C258.622752,436.074251 244.406552,448.533393 235.577047,447.9401 C224.187543,447.171387 206.575599,436.376602 203.887242,426.545916 C192.673159,385.491788 225.048958,318.54244 262.484858,296.740368 C268.453437,293.261905 275.397526,289.819097 279.121292,284.443811 C298.841136,255.930117 327.749883,253.324479 361.834251,255.221304 L361.834251,255.221304 Z" id="Shape"></path>
                    <path d="M577.866875,753.291766 C555.879398,749.057426 533.880513,744.834496 507.218006,739.704513 C538.872156,712.216245 576.847153,743.269972 579.809337,743.148747 C585.298719,744.760334 609.923209,747.711109 609.606596,749.375465 C609.278574,751.089738 582.808602,753.291766 577.866875,753.291766 L577.866875,753.291766 Z" id="Shape"></path>
                </g>
                <path d="M307.739097,423.021816 C307.739097,452.733504 432.899565,455.036791 432.899565,423.021816 C432.900992,377.463799 307.739097,377.463799 307.739097,423.021816 L307.739097,423.021816 Z" id="Shape" fill="#9E1F63"></path>
            </g>
            <rect id="Rectangle" x="0" y="0" width="1024" height="1024"></rect>
        </g>
    </g>
</svg>